<?xml version="1.0" encoding="UTF-8"?>
<svg width="64px" height="56px" viewBox="0 0 64 56" version="1.1"
    xmlns="http://www.w3.org/2000/svg">
    <defs>
        <linearGradient x1="49.9996829%" y1="19.2905912%" x2="49.9996829%" y2="100.448414%"
            id="linearGradient-1">
            <stop stop-color="#EC6F80" offset="0%" />
            <stop stop-color="#ECA0AA" offset="100%" />
        </linearGradient>
        <linearGradient x1="50%" y1="65.9989916%" x2="50%" y2="3.27372616%" id="linearGradient-2">
            <stop stop-color="#EC6F80" offset="0%" />
            <stop stop-color="#ECA0AA" offset="100%" />
        </linearGradient>
        <linearGradient x1="71.751269%" y1="50%" x2="-41.1773965%" y2="50%" id="linearGradient-3">
            <stop stop-color="#EC6F80" offset="0%" />
            <stop stop-color="#ECA0AA" offset="100%" />
        </linearGradient>
        <linearGradient x1="49.9998769%" y1="100%" x2="49.9998769%" y2="-7.52275994%"
            id="linearGradient-4">
            <stop stop-color="#F4D952" offset="0%" />
            <stop stop-color="#F9EDAF" offset="100%" />
        </linearGradient>
        <linearGradient x1="83.1183447%" y1="50.000376%" x2="-7.50226925%" y2="50.000376%"
            id="linearGradient-5">
            <stop stop-color="#EC6F80" offset="0%" />
            <stop stop-color="#ECA0AA" offset="100%" />
        </linearGradient>
    </defs>
    <g id="Page-1" stroke="none" stroke-width="1" fill="none" fill-rule="evenodd">
        <path
            d="M26.6670916,45.3262491 C28.2932271,49.217935 30.1150598,52.2261911 32.5805896,54.3763023 C34.9466773,56.4397776 38.4878406,56.4397776 40.8540558,54.3763023 C43.3195857,52.2261911 45.1414183,49.217935 46.7675538,45.3262491 L26.6670916,45.3262491 Z"
            id="Path" fill="url(#linearGradient-1)" />
        <path
            d="M51.8088924,10.6341431 C50.182757,6.74245716 48.3609243,3.73420103 45.8953944,1.58408982 C43.5293068,-0.479385469 39.9881434,-0.479385469 37.6220558,1.58408982 C36.7478566,2.34648598 35.9558884,3.21887769 35.2235857,4.19818456 C34.5694343,3.8354688 33.9050837,3.51960063 33.2244143,3.25789595 C30.2999203,2.13355413 26.9724303,3.3528746 25.4499442,6.10661362 C23.8635857,8.97599556 23.1736096,12.4301379 22.9675857,16.6470615 L51.8088924,10.6341431 Z"
            id="Path" fill="url(#linearGradient-2)" />
        <path
            d="M16.2576574,15.2502337 C11.4915697,10.4520151 5.01749801,9.19033926 1.79748207,12.4321915 C-1.26342629,15.5137352 -0.214438247,21.2209251 3.42807968,25.6880019 C4.70820717,27.2579733 4.70858964,29.4998544 3.42897211,31.0703392 C-0.211250996,35.5381861 -1.25807171,41.2499966 1.79735458,44.3260213 C5.01749801,47.5678735 11.4915697,46.3061977 16.2575299,41.5079791 C20.4007012,37.3368763 21.8873625,31.8673897 20.0902629,28.3791064 C21.88749,24.890823 20.4008287,19.4214648 16.2576574,15.2502337 Z"
            id="Path" fill="url(#linearGradient-3)" />
        <path
            d="M12.2217052,28.3791064 C12.2217052,39.9182419 25.1662789,49.2726119 43.2465339,49.2726119 C54.7083984,49.2726119 64.0001275,39.9182419 64.0001275,28.3791064 C64.0001275,16.8399708 54.7083984,7.4856009 43.2465339,7.4856009 C31.7845418,7.4856009 12.2217052,16.8399708 12.2217052,28.3791064 Z"
            id="Path" fill="url(#linearGradient-4)" />
        <path
            d="M31.6557769,23.8878999 C31.2805737,23.8878999 30.9053705,23.7437634 30.6190279,23.4556187 C28.4938964,21.3160321 28.4938964,17.834808 30.6190279,15.6952215 C31.1915857,15.1189321 32.1198406,15.1189321 32.6925259,15.6952215 C33.2650837,16.2716392 33.2650837,17.206152 32.6925259,17.7826981 C31.7105976,18.7712461 31.7105976,20.379594 32.6925259,21.3682704 C33.2650837,21.9446881 33.2650837,22.879201 32.6925259,23.455747 C32.4061833,23.7437634 32.0309801,23.8878999 31.6557769,23.8878999 L31.6557769,23.8878999 Z"
            id="Path" fill="#EFC534" />
        <path
            d="M36.006247,44.7975774 C35.6310438,44.7975774 35.2558406,44.6534409 34.9696255,44.3652962 C33.9400159,43.3288738 33.3730677,41.950785 33.3730677,40.4851618 C33.3730677,39.0195386 33.9400159,37.6415781 34.9696255,36.6050273 C35.5421833,36.028738 36.4705657,36.028738 37.042996,36.6050273 C37.6155538,37.181445 37.6156813,38.1159579 37.0431235,38.692504 C36.5674582,39.1715044 36.3054661,39.8079897 36.3054661,40.4852901 C36.3054661,41.1625906 36.5674582,41.7992042 37.0431235,42.2780763 C37.6156813,42.854494 37.6158088,43.7890068 37.043251,44.3655529 C36.7567809,44.6534409 36.3814502,44.7975774 36.006247,44.7975774 L36.006247,44.7975774 Z"
            id="Path" fill="#EFC534" />
        <path
            d="M20.0903904,29.8551259 C19.7151873,29.8551259 19.3399841,29.7109894 19.0536414,29.4228447 C16.92851,27.2832582 16.92851,23.802034 19.0536414,21.6624475 C19.6261992,21.0861581 20.5545817,21.0861581 21.1271394,21.6624475 C21.6996972,22.2388652 21.6996972,23.1735064 21.1271394,23.7499241 C20.1452112,24.7384722 20.1452112,26.34682 21.1271394,27.3354964 C21.6996972,27.9119141 21.6996972,28.846427 21.1271394,29.4229731 C20.8407968,29.7109894 20.4655936,29.8551259 20.0903904,29.8551259 L20.0903904,29.8551259 Z"
            id="Path" fill="#EFC534" />
        <path
            d="M34.808988,28.6026913 C31.5099283,25.2813906 27.2529084,24.1822053 25.3007809,26.1474932 C24.0548207,27.4018531 24.0506135,29.6017639 25.0672191,31.8925462 C22.6919522,32.7832919 21.1124781,34.3581406 21.1124781,36.1536221 C21.1124781,38.933031 24.8947251,41.1862069 29.5602231,41.1862069 C33.1854024,41.1862069 36.2761434,39.8255736 37.4748048,37.9150909 C39.1027251,35.8514873 37.9701036,31.7851177 34.808988,28.6026913 L34.808988,28.6026913 Z"
            id="Path" fill="url(#linearGradient-5)" />
        <path
            d="M8.88554582,33.7151095 C9.51381673,35.9157904 10.5260876,37.9908171 11.8672829,39.9201672 C10.6030916,40.8744459 9.33749801,41.4729397 8.21354582,41.7748178 C7.31384861,42.0163716 6.68047809,42.8248452 6.68047809,43.7621818 C6.68047809,45.1075415 7.94568924,46.0927524 9.23729084,45.7472355 C11.6217371,45.1093384 14.11251,43.6675882 16.2576574,41.5079791 C16.6737849,41.0890463 17.0618645,40.6565084 17.4238088,40.214601 C15.1973227,37.9603983 13.619251,35.3866053 12.8201434,32.6119453 C12.5297211,31.6037598 11.5477928,30.9649642 10.5192032,31.1368242 C9.32181673,31.3369212 8.55024701,32.5408397 8.88554582,33.7151095 L8.88554582,33.7151095 Z"
            id="Path" fill="#E05D6F" />
        <path
            d="M53.9160478,15.9481984 C53.6415618,15.9481984 53.3650359,15.8595088 53.1319841,15.6760974 C52.7629004,15.3856424 52.376988,15.1085358 51.9847012,14.8520934 C51.3941673,14.4660181 51.2263904,13.6711495 51.6098805,13.0766345 C51.9933705,12.4821195 52.7829163,12.3130832 53.3734502,12.6992869 C53.8276972,12.9962877 54.2746773,13.3171615 54.7018964,13.6534372 C55.2567331,14.089954 55.3550279,14.8966307 54.9214343,15.4550795 C54.6701514,15.7789053 54.2949482,15.9481984 53.9160478,15.9481984 L53.9160478,15.9481984 Z"
            id="Path" fill="#FFFDE3" />
        <path
            d="M48.0207809,12.9156842 C47.903745,12.9156842 47.7846693,12.8992554 47.6666135,12.8649861 C46.2268685,12.4465667 44.7396972,12.2345333 43.2465339,12.2345333 C42.8917291,12.2345333 42.5183108,12.2462131 42.1366056,12.269316 C41.4343904,12.3100028 40.8297052,11.772475 40.787506,11.0650124 C40.7453068,10.3574215 41.2807649,9.74942979 41.9836175,9.70681774 C42.4160637,9.68076279 42.8408606,9.66741444 43.2464064,9.66741444 C44.9788685,9.66741444 46.7039363,9.91333213 48.3735458,10.3984933 C49.050008,10.5949964 49.4401275,11.3064379 49.2449402,11.9874604 C49.0837928,12.5497597 48.5742151,12.9156842 48.0207809,12.9156842 L48.0207809,12.9156842 Z"
            id="Path" fill="#FFFDE3" />
        <ellipse id="Oval" fill="#EAADCD" cx="38.4940876" cy="28.9738781" rx="1.90419124"
            ry="1.54057933" />
        <ellipse id="Oval" fill="#EAADCD" cx="60.9031394" cy="28.9738781" rx="1.90419124"
            ry="1.54057933" />
        <ellipse id="Oval" fill="#FFFFFF" cx="41.7587251" cy="25.1724219" rx="3.776"
            ry="3.80145618" />
        <ellipse id="Oval" fill="#3B3B44"
            transform="translate(43.299288, 25.174278) rotate(-74.754930) translate(-43.299288, -25.174278) "
            cx="43.299288" cy="25.1742781" rx="2.26502621" ry="2.25195004" />
        <ellipse id="Oval" fill="#FFFFFF" cx="57.638502" cy="25.1724219" rx="3.776"
            ry="3.80145618" />
        <ellipse id="Oval" fill="#3B3B44"
            transform="translate(59.167205, 25.188227) rotate(-47.471956) translate(-59.167205, -25.188227) "
            cx="59.1672055" cy="25.1882267" rx="2.2588704" ry="2.25756282" />
        <ellipse id="Oval" fill="#3B3B44" cx="49.6985498" cy="28.0541254" rx="1.68949801"
            ry="2.22712093" />
    </g>
</svg>