<?xml version="1.0" encoding="UTF-8"?>
<svg width="64px" height="48px" viewBox="0 0 64 48" version="1.1"
    xmlns="http://www.w3.org/2000/svg">
    <g transform="translate(32.000000, 24.000000) scale(-1, 1) translate(-32.000000, -24.000000) "
        id="Path">
        <path
            d="M0.812307692,24.2109091 L2.19576923,23.0218182 C8.97769231,17.192 17.5270192,14 26.3555769,14 C33.99,14 41.4446154,16.388 47.7357692,20.8487273 L55,26 L47.7357692,31.1512727 C41.4446154,35.612 33.99,38 26.3555769,38 C17.5270192,38 8.97769231,34.808 2.19576923,28.9781818 L0.812307692,27.7890909 C0.297211538,27.3472727 0,26.6916364 0,26 C0,25.3083636 0.297211538,24.6527273 0.812307692,24.2109091 L0.812307692,24.2109091 Z"
            fill="#E7E4DD" />
        <path
            d="M45.58125,33 L45.4807692,32.9743288 C33.5806731,28.5421489 21.0523077,26.2775069 8.43192308,26.2775069 L0,26.2775069 C0,25.5698761 0.297211538,24.8990777 0.812307692,24.4470422 L2.19576923,23.2304529 C8.97769231,17.2658168 17.5270192,14 26.3555769,14 C33.99,14 41.4446154,16.4432239 47.7357692,21.007108 L55,26.2775069 L47.7357692,31.5479058 C47.0313462,32.0579804 46.3131731,32.5423838 45.58125,33 L45.58125,33 Z"
            fill="#8892A0" />
        <path
            d="M8.20076917,30.9455573 L4,30.9455573 C5.06804803,31.6841294 6.17235696,32.3692861 7.30853151,33 L8.20076917,33 C11.5851189,33 14.9738639,32.2521828 18,30.837699 L17.0176595,29 C14.2947963,30.2717001 11.2466839,30.9455573 8.20076917,30.9455573 L8.20076917,30.9455573 Z"
            fill="#E47C6E" />
        <path
            d="M13.4995002,22 C12.6727757,22 12,21.327 12,20.5 C12,19.673 12.6727757,19 13.4995002,19 C14.3262246,19 15,19.673 15,20.501 C15,21.327 14.3262246,22 13.4995002,22 Z"
            fill="#243242" />
        <polygon fill="#E7E4DD" points="21 19 23 19 23 23 21 23" />
        <polygon fill="#E7E4DD" points="25 19 27 19 27 23 25 23" />
        <polygon fill="#E7E4DD" points="28 19 30 19 30 23 28 23" />
        <path
            d="M55,26 L55,32.4285714 C55,37.1621429 59.02975,41 64,41 L64,34.5714286 C64,29.8378571 59.97025,26 55,26 Z"
            fill="#758190" />
        <path
            d="M55,26 L55,19.5714286 C55,14.8378571 59.02975,11 64,11 L64,17.4285714 C64,22.1621429 59.97025,26 55,26 Z"
            fill="#758190" />
        <path
            d="M33.709761,15 C31.8784296,10.3182549 32.5006954,4.9963461 35.3831079,0.88022508 L36,0 L35.4701606,0.196214557 C28.3544064,2.83579363 22.4778101,8.1061824 19,14.9528647 C21.3719181,14.4880883 23.7954229,14.2502192 26.2393476,14.2502192 C28.7606524,14.2502192 31.2615375,14.5034347 33.709761,15 Z"
            fill="#758190" />
        <path
            d="M38,36 C34.2185421,37.2486198 30.2526757,37.8942641 26.2390801,37.8942641 C25.1543246,37.8942641 24.073908,37.847104 23,37.7539066 L24.4427249,39.5482362 C27.7946196,43.5961448 32.2225918,46.5346683 37.1755858,48 L37.028059,47.6934593 C35.1980764,43.9060541 35.5853341,39.3876673 38,36 L38,36 Z"
            fill="#758190" />
    </g>
</svg>